<svg width="278" height="277" xmlns="http://www.w3.org/2000/svg" xmlns:xlink="http://www.w3.org/1999/xlink" xml:space="preserve" overflow="hidden"><defs><clipPath id="clip0"><rect x="290" y="221" width="278" height="277"/></clipPath><clipPath id="clip1"><rect x="291" y="222" width="277" height="276"/></clipPath><clipPath id="clip2"><rect x="291" y="222" width="277" height="276"/></clipPath><clipPath id="clip3"><rect x="291" y="222" width="277" height="276"/></clipPath></defs><g clip-path="url(#clip0)" transform="translate(-290 -221)"><g clip-path="url(#clip1)"><g clip-path="url(#clip2)"><g clip-path="url(#clip3)"><path d="M155.537 204.125C155.537 202.688 155.25 201.25 155.25 199.812 155.25 199.238 155.25 198.95 155.25 198.375L120.75 198.375C120.75 198.95 120.75 199.238 120.75 199.812 120.75 201.25 120.75 202.688 120.463 204.125L155.537 204.125Z" fill="#000000" fill-rule="nonzero" fill-opacity="1" transform="matrix(1.00362 0 0 1 291 222)"/><path d="M94.5875 159.275 110.688 131.387C108.963 130.525 107.525 129.375 105.8 128.225L89.125 157.262C91.1375 157.838 92.8625 158.412 94.5875 159.275Z" fill="#000000" fill-rule="nonzero" fill-opacity="1" transform="matrix(1.00362 0 0 1 291 222)"/><path d="M184.575 158.125 167.325 128.225C165.887 129.375 164.162 130.238 162.438 131.387L179.113 160.425C180.838 159.562 182.85 158.7 184.575 158.125Z" fill="#000000" fill-rule="nonzero" fill-opacity="1" transform="matrix(1.00362 0 0 1 291 222)"/><path d="M76.1875 163.875C56.35 163.875 40.25 179.975 40.25 199.812 40.25 219.65 56.35 235.75 76.1875 235.75 96.025 235.75 112.125 219.65 112.125 199.812 112.125 179.975 96.025 163.875 76.1875 163.875ZM58.9375 224.537C59.8 215.05 68.425 207.863 77.9125 208.725 86.25 209.588 92.8625 216.2 93.725 224.537 83.0875 231.725 69.2875 231.725 58.9375 224.537ZM68.1375 194.925C68.1375 190.613 71.5875 186.875 76.1875 186.875 80.5 186.875 84.2375 190.325 84.2375 194.925 84.2375 199.238 80.7875 202.975 76.1875 202.975 71.875 202.975 68.1375 199.238 68.1375 194.925ZM98.6125 219.938C96.8875 213.325 92 207.575 85.675 204.7 91.1375 199.525 91.425 190.9 86.25 185.15 81.075 179.688 72.45 179.4 66.7 184.575 61.2375 189.75 60.95 198.375 66.125 204.125 66.4125 204.412 66.7 204.7 66.7 204.7 60.375 207.575 55.4875 213.037 53.7625 219.938 42.55 207.575 43.4125 188.6 55.775 177.387 68.1375 166.175 87.1125 167.037 98.325 179.4 108.963 190.9 108.963 208.438 98.6125 219.938Z" fill="#000000" fill-rule="nonzero" fill-opacity="1" transform="matrix(1.00362 0 0 1 291 222)"/><path d="M199.812 163.875C179.975 163.875 163.875 179.975 163.875 199.812 163.875 219.65 179.975 235.75 199.812 235.75 219.65 235.75 235.75 219.65 235.75 199.812 235.75 179.975 219.65 163.875 199.812 163.875ZM182.562 224.537C183.425 215.05 192.05 207.863 201.537 208.725 209.875 209.588 216.488 216.2 217.35 224.537 206.713 231.725 192.912 231.725 182.562 224.537ZM191.762 194.925C191.762 190.613 195.213 186.875 199.812 186.875 204.125 186.875 207.863 190.325 207.863 194.925 207.863 199.238 204.412 202.975 199.812 202.975 195.5 202.975 191.762 199.238 191.762 194.925ZM222.238 219.938C220.512 213.325 215.625 207.575 209.3 204.7 214.762 199.525 215.05 190.9 209.875 185.15 204.7 179.688 196.075 179.4 190.325 184.575 184.575 189.75 184.575 198.375 189.75 204.125 190.037 204.412 190.325 204.7 190.325 204.7 184 207.575 179.113 213.037 177.387 219.938 166.175 207.575 167.037 188.6 179.4 177.387 191.762 166.175 210.738 167.037 221.95 179.4 232.588 190.9 232.588 208.438 222.238 219.938Z" fill="#000000" fill-rule="nonzero" fill-opacity="1" transform="matrix(1.00362 0 0 1 291 222)"/><path d="M136.562 40.25C111.838 40.25 92 60.0875 92 84.8125 92 109.537 111.838 129.375 136.562 129.375 161.287 129.375 181.125 109.537 181.125 84.8125 181.125 60.0875 161.287 40.25 136.562 40.25ZM113.85 116.15C114.713 103.5 125.638 94.3 138.287 95.1625 149.5 96.025 158.412 104.938 159.275 116.15 145.762 126.213 127.362 126.213 113.85 116.15ZM125.638 78.4875C125.638 72.45 130.525 67.5625 136.562 67.5625 142.6 67.5625 147.488 72.45 147.488 78.4875 147.488 84.525 142.6 89.4125 136.562 89.4125 130.525 89.4125 125.638 84.525 125.638 78.4875ZM164.45 111.263C162.438 102.062 155.825 94.5875 147.2 91.425 154.387 85.675 155.25 75.325 149.5 68.1375 143.75 60.95 133.4 60.0875 126.213 65.8375 119.025 71.5875 117.875 81.9375 123.625 89.125 124.2 89.9875 125.062 90.85 125.925 91.425 117.013 94.875 110.688 102.638 108.675 111.838 93.725 96.6 94.0125 71.875 109.537 56.925 125.062 41.975 149.5 42.2625 164.45 57.7875 179.113 72.7375 179.113 96.8875 164.45 111.838 164.45 111.838 164.45 111.55 164.45 111.263Z" fill="#000000" fill-rule="nonzero" fill-opacity="1" transform="matrix(1.00362 0 0 1 291 222)"/></g></g></g></g></svg>