<svg width="277" height="278" xmlns="http://www.w3.org/2000/svg" xmlns:xlink="http://www.w3.org/1999/xlink" xml:space="preserve" overflow="hidden"><defs><clipPath id="clip0"><rect x="712" y="238" width="277" height="278"/></clipPath><clipPath id="clip1"><rect x="712" y="239" width="277" height="277"/></clipPath><clipPath id="clip2"><rect x="712" y="239" width="277" height="277"/></clipPath><clipPath id="clip3"><rect x="712" y="239" width="277" height="277"/></clipPath></defs><g clip-path="url(#clip0)" transform="translate(-712 -238)"><g clip-path="url(#clip1)"><g clip-path="url(#clip2)"><g clip-path="url(#clip3)"><path d="M945.719 399.481C945.725 391.196 942.366 383.263 936.413 377.5 944.756 363.639 940.282 345.64 926.421 337.297 925.717 336.874 924.996 336.48 924.26 336.117 928.084 323.289 920.785 309.79 907.956 305.966 907.738 305.901 907.519 305.839 907.299 305.78 906.376 291.704 894.216 281.042 880.14 281.966 866.702 282.847 856.256 294.012 856.271 307.48L856.271 449.318C856.274 459.906 864.859 468.486 875.447 468.483 883.821 468.481 891.224 463.044 893.732 455.054 908.881 458.377 923.854 448.79 927.177 433.642 927.613 431.655 927.831 429.627 927.829 427.594 927.829 427.51 927.829 427.426 927.829 427.34 938.727 422.351 945.716 411.467 945.719 399.481Z" fill="#000000" fill-rule="nonzero" fill-opacity="1"/><path d="M768.874 300.295C767.343 300.297 765.875 299.688 764.794 298.604L752.555 286.361C750.262 284.147 750.199 280.494 752.413 278.201 754.627 275.909 758.28 275.845 760.573 278.059 760.621 278.106 760.668 278.153 760.714 278.201L772.954 290.444C775.208 292.698 775.207 296.352 772.953 298.605 771.871 299.687 770.404 300.295 768.874 300.295Z" fill="#000000" fill-rule="nonzero" fill-opacity="1"/><path d="M748.959 339.029C748.187 339.029 747.423 338.874 746.712 338.573L728.617 330.921C725.69 329.659 724.341 326.263 725.603 323.337 726.852 320.439 730.198 319.082 733.113 320.291L751.21 327.943C754.145 329.185 755.518 332.571 754.277 335.506 753.373 337.642 751.279 339.03 748.959 339.029Z" fill="#000000" fill-rule="nonzero" fill-opacity="1"/><path d="M739.521 381.923 723.542 381.923C720.354 381.923 717.771 379.34 717.771 376.153 717.771 372.965 720.354 370.382 723.542 370.382L739.521 370.382C742.708 370.382 745.292 372.965 745.292 376.153 745.292 379.34 742.708 381.923 739.521 381.923Z" fill="#000000" fill-rule="nonzero" fill-opacity="1"/><path d="M726.444 434.305C723.257 434.31 720.67 431.73 720.666 428.542 720.662 426.278 721.983 424.222 724.044 423.283L739.359 416.289C742.258 414.964 745.682 416.239 747.007 419.138 748.332 422.037 747.057 425.461 744.158 426.786L728.839 433.783C728.088 434.127 727.271 434.305 726.444 434.305Z" fill="#000000" fill-rule="nonzero" fill-opacity="1"/><path d="M754.84 477.581C751.653 477.582 749.068 474.999 749.067 471.812 749.067 470.279 749.676 468.81 750.76 467.727L763.003 455.487C765.34 453.32 768.991 453.458 771.158 455.796 773.213 458.012 773.209 461.437 771.151 463.65L758.92 475.893C757.838 476.976 756.37 477.583 754.84 477.581Z" fill="#000000" fill-rule="nonzero" fill-opacity="1"/><path d="M807.47 346.889C803.511 348.079 801.266 352.252 802.456 356.211 803.646 360.17 807.82 362.414 811.779 361.225 815.737 360.035 817.982 355.862 816.793 351.903 815.606 347.946 811.434 345.7 807.476 346.887 807.474 346.887 807.472 346.888 807.47 346.889Z" fill="#000000" fill-rule="nonzero" fill-opacity="1"/><path d="M796.367 390.005C792.408 391.195 790.163 395.369 791.353 399.328 792.543 403.287 796.717 405.531 800.675 404.341 804.634 403.152 806.879 398.979 805.69 395.02 804.502 391.062 800.331 388.816 796.373 390.003 796.371 390.004 796.369 390.005 796.367 390.005Z" fill="#000000" fill-rule="nonzero" fill-opacity="1"/><path d="M819.173 281.921C805.726 281.926 794.588 292.359 793.703 305.777 780.772 309.237 773.094 322.524 776.553 335.455 776.612 335.676 776.675 335.897 776.74 336.117 762.229 343.263 756.259 360.819 763.405 375.33 763.769 376.07 764.164 376.794 764.59 377.5 752.448 389.271 752.146 408.656 763.917 420.798 766.572 423.537 769.715 425.756 773.185 427.34 773.185 427.426 773.185 427.51 773.185 427.594 773.169 443.104 785.73 455.69 801.24 455.706 803.273 455.708 805.3 455.49 807.285 455.054 810.476 465.148 821.246 470.744 831.339 467.553 839.296 465.037 844.711 457.663 844.729 449.318L844.729 307.48C844.731 293.365 833.29 281.922 819.176 281.921 819.175 281.921 819.174 281.921 819.173 281.921ZM818.385 405.041 816.019 409.45 811.114 409.303C810.128 410.311 809.022 411.195 807.822 411.935L806.999 416.776 802.233 418.219 798.868 414.667C797.464 414.697 796.061 414.557 794.69 414.249L790.651 417.053 786.273 414.699 786.386 409.794C785.38 408.81 784.498 407.707 783.757 406.51L778.913 405.667 777.47 400.901 781.062 397.568C781.019 396.157 781.146 394.747 781.443 393.367L778.63 389.33 780.996 384.93 785.924 385.071C786.899 384.059 787.993 383.168 789.182 382.42L790.004 377.578 794.771 376.135 798.141 379.716C799.556 379.68 800.97 379.818 802.351 380.126L806.365 377.298 810.765 379.667 810.618 384.572C811.637 385.554 812.53 386.658 813.278 387.859L818.12 388.678 819.563 393.445 815.97 396.832C816.002 398.237 815.861 399.64 815.552 401.01ZM829.436 361.919 827.07 366.319 822.165 366.172C821.191 367.192 820.096 368.089 818.905 368.844L818.062 373.691 813.295 375.134 809.925 371.553C808.52 371.585 807.116 371.444 805.744 371.135L801.731 373.962 797.33 371.594 797.512 366.634C796.499 365.66 795.608 364.566 794.861 363.376L790.022 362.556 788.579 357.79 792.16 354.417C792.128 353.013 792.266 351.61 792.57 350.239L789.698 346.216 792.102 341.796 797.007 341.943C797.991 340.936 799.093 340.053 800.291 339.314L801.133 334.467 805.9 333.024 809.265 336.576C810.669 336.546 812.072 336.687 813.443 336.995L817.459 334.178 821.859 336.544 821.709 341.476C822.723 342.449 823.613 343.543 824.361 344.733L829.203 345.553 830.645 350.322 827.065 353.692C827.088 355.117 826.935 356.539 826.609 357.925Z" fill="#000000" fill-rule="nonzero" fill-opacity="1"/></g></g></g></g></svg>